# xmcd
#
# Track frame offsets: 
#        150
#        16725
#        31148
#        49554
#        65379
#        83367
#        94125
#        111788
#        128400
#        142299
#        158585
#        178891
#        190321
#        209155
#        231604
#        248759
#        266582
#        280840
#        297396
#        315190
#
# Disc length: 4472 seconds
#
# Revision: 0
# Processed by: cddbd v1.5.2PL0 Copyright (c) Steve Scherf et al.
# Submitted via: ExactAudioCopyFreeDBPlugin 1.0
#
DISCID=19117614
DTITLE=Diamond Rio - The Definitive Hits Collection
DYEAR=2016
DGENRE=country
TTITLE0=It's All In Your Head
TTITLE1=Holdin'
TTITLE2=How Your Love Makes Me Feel
TTITLE3=Imagine That
TTITLE4=You're Gone
TTITLE5=Unbelievable
TTITLE6=Two Pump Texaco
TTITLE7=I Know How The River Feels
TTITLE8=Stuff
TTITLE9=One More Day
TTITLE10=Sweet Summer
TTITLE11=That's Just That
TTITLE12=I'm Trying
TTITLE13=Hearts Against The Wind
TTITLE14=Beautiful Mess
TTITLE15=I Believe
TTITLE16=Wrinkles
TTITLE17=One Believer
TTITLE18=God Only Cries
TTITLE19=Walking In Jerusalem
EXTD=
EXTT0=
EXTT1=
EXTT2=
EXTT3=
EXTT4=
EXTT5=
EXTT6=
EXTT7=
EXTT8=
EXTT9=
EXTT10=
EXTT11=
EXTT12=
EXTT13=
EXTT14=
EXTT15=
EXTT16=
EXTT17=
EXTT18=
EXTT19=
PLAYORDER=
